<?xml version="1.0" encoding="UTF-8"?>
<!DOCTYPE svg PUBLIC "-//W3C//DTD SVG 1.1//EN" "http://www.w3.org/Graphics/SVG/1.1/DTD/svg11.dtd">
<svg xmlns="http://www.w3.org/2000/svg" version="1.1" width="2000px" height="2000px" style="shape-rendering:geometricPrecision; text-rendering:geometricPrecision; image-rendering:optimizeQuality; fill-rule:evenodd; clip-rule:evenodd" xmlns:xlink="http://www.w3.org/1999/xlink">
<g><path style="opacity:1" fill="#faeee5" d="M -0.5,-0.5 C 666.167,-0.5 1332.83,-0.5 1999.5,-0.5C 1999.5,666.167 1999.5,1332.83 1999.5,1999.5C 1332.83,1999.5 666.167,1999.5 -0.5,1999.5C -0.5,1332.83 -0.5,666.167 -0.5,-0.5 Z"/></g>
<g><path style="opacity:1" fill="#f0913a" d="M 944.5,509.5 C 1069.88,503.787 1170.38,550.454 1246,649.5C 1312.09,746.973 1326.09,851.64 1288,963.5C 1246.04,1068.8 1170.87,1137.96 1062.5,1171C 930.773,1202.85 817.606,1170.69 723,1074.5C 641.408,979.965 616.408,871.965 648,750.5C 685.346,636.61 760.846,560.777 874.5,523C 897.504,516.098 920.837,511.598 944.5,509.5 Z"/></g>
<g><path style="opacity:1" fill="#faeee5" d="M 950.5,515.5 C 1068.73,512.043 1164.23,556.377 1237,648.5C 1301.35,739.276 1318.02,838.276 1287,945.5C 1254.4,1043.44 1190.57,1112.6 1095.5,1153C 993.792,1191.37 895.792,1183.7 801.5,1130C 704.829,1068.56 651.663,980.392 642,865.5C 637.609,761.301 673.109,673.467 748.5,602C 805.981,550.549 873.315,521.716 950.5,515.5 Z"/></g>
<g><path style="opacity:1" fill="#f0923c" d="M 952.5,575.5 C 1058.09,572.545 1140.59,614.212 1200,700.5C 1249.49,782.523 1255.82,867.856 1219,956.5C 1175.38,1046.75 1103.88,1099.59 1004.5,1115C 909.328,1123.8 829.828,1092.97 766,1022.5C 706.324,948.51 687.99,865.176 711,772.5C 737.668,686.833 792.501,627 875.5,593C 900.628,584.108 926.294,578.275 952.5,575.5 Z"/></g>
<g><path style="opacity:1" fill="#fbeee5" d="M 948.5,581.5 C 1050.32,576.499 1131.15,614.832 1191,696.5C 1235.4,763.909 1247.74,836.909 1228,915.5C 1199.74,1009.42 1138.91,1071.26 1045.5,1101C 955.355,1124.77 874.022,1107.77 801.5,1050C 725.528,981.768 695.361,896.934 711,795.5C 729.504,712.365 776.004,650.531 850.5,610C 881.504,594.271 914.171,584.771 948.5,581.5 Z"/></g>
<g><path style="opacity:1" fill="#f08f37" d="M 1067.5,732.5 C 1066.01,728.182 1064.01,724.182 1061.5,720.5C 1060.32,718.439 1060.98,716.939 1063.5,716C 1077.09,708.953 1090.59,701.787 1104,694.5C 1104.77,694.645 1105.44,694.978 1106,695.5C 1108.58,700.992 1111.41,706.325 1114.5,711.5C 1114.29,712.086 1113.96,712.586 1113.5,713C 1106.13,716.678 1099.13,720.844 1092.5,725.5C 1095.09,729.674 1097.42,734.007 1099.5,738.5C 1098.54,740.49 1097.2,740.823 1095.5,739.5C 1093,735.167 1090.5,730.833 1088,726.5C 1082.63,730.017 1076.97,733.017 1071,735.5C 1069.83,734.456 1068.66,733.456 1067.5,732.5 Z"/></g>
<g><path style="opacity:1" fill="#fae6d5" d="M 1086.5,719.5 C 1087.5,719.5 1088.5,719.5 1089.5,719.5C 1089.5,720.833 1089.5,722.167 1089.5,723.5C 1088.5,723.5 1087.5,723.5 1086.5,723.5C 1086.5,722.167 1086.5,720.833 1086.5,719.5 Z"/></g>
<g><path style="opacity:1" fill="#f1933e" d="M 1059.5,722.5 C 1060.5,722.414 1061.33,722.748 1062,723.5C 1064.07,726.971 1065.57,730.638 1066.5,734.5C 1065.85,734.804 1065.18,735.137 1064.5,735.5C 1061.72,732.277 1059.72,728.61 1058.5,724.5C 1058.54,723.584 1058.88,722.917 1059.5,722.5 Z"/></g>
<g><path style="opacity:1" fill="#f8d2b1" d="M 1061.5,720.5 C 1064.01,724.182 1066.01,728.182 1067.5,732.5C 1067.67,733.492 1067.34,734.158 1066.5,734.5C 1065.57,730.638 1064.07,726.971 1062,723.5C 1061.33,722.748 1060.5,722.414 1059.5,722.5C 1060.17,721.833 1060.83,721.167 1061.5,720.5 Z"/></g>
<g><path style="opacity:1" fill="#f0923b" d="M 1099.5,741.5 C 1103.71,741.694 1105.04,743.694 1103.5,747.5C 1101.65,748.76 1099.81,748.76 1098,747.5C 1097.26,745.126 1097.76,743.126 1099.5,741.5 Z"/></g>
<g><path style="opacity:1" fill="#f09139" d="M 1106.5,743.5 C 1113.5,743.5 1120.5,743.5 1127.5,743.5C 1127.5,744.833 1127.5,746.167 1127.5,747.5C 1120.5,747.5 1113.5,747.5 1106.5,747.5C 1106.5,746.167 1106.5,744.833 1106.5,743.5 Z"/></g>
<g><path style="opacity:1" fill="#f08f36" d="M 826.5,794.5 C 841.018,794.224 847.185,801.224 845,815.5C 839.705,825.723 831.872,828.223 821.5,823C 814.337,815.543 813.671,807.543 819.5,799C 821.898,797.476 824.231,795.976 826.5,794.5 Z"/></g>
<g><path style="opacity:1" fill="#f08f36" d="M 880.5,795.5 C 894.352,793.808 901.185,799.808 901,813.5C 896.486,825.664 888.319,828.831 876.5,823C 870.096,816.709 868.93,809.542 873,801.5C 875.114,798.879 877.614,796.879 880.5,795.5 Z"/></g>
<g><path style="opacity:1" fill="#f08f37" d="M 933.5,794.5 C 950.063,795.639 955.563,803.973 950,819.5C 940.933,827.813 932.267,827.48 924,818.5C 919.653,807.528 922.819,799.528 933.5,794.5 Z"/></g>
<g><path style="opacity:1" fill="#f08f37" d="M 1003.5,794.5 C 1016.36,793.869 1022.86,799.869 1023,812.5C 1018.67,824.915 1010.5,828.415 998.5,823C 992.885,818.032 991.052,811.865 993,804.5C 995.409,799.922 998.909,796.588 1003.5,794.5 Z"/></g>
<g><path style="opacity:1" fill="#f08f36" d="M 816.5,828.5 C 818.199,828.34 819.866,828.506 821.5,829C 828.912,832.788 836.079,836.955 843,841.5C 843.667,863.833 843.667,886.167 843,908.5C 841.667,909.833 840.333,911.167 839,912.5C 838.333,935.5 838.333,958.5 839,981.5C 842.716,982.704 846.55,983.538 850.5,984C 854.36,986.516 855.36,989.849 853.5,994C 844.833,994.667 836.167,994.667 827.5,994C 825.667,993.5 824.5,992.333 824,990.5C 823.833,964.494 823.333,938.494 822.5,912.5C 819.867,911.699 818.033,910.033 817,907.5C 815.196,882.837 813.863,858.17 813,833.5C 813.997,831.677 815.164,830.01 816.5,828.5 Z"/></g>
<g><path style="opacity:1" fill="#f08e35" d="M 872.5,828.5 C 875.425,828.46 878.091,829.293 880.5,831C 886.25,834.626 892.084,838.126 898,841.5C 898.5,863.831 898.667,886.164 898.5,908.5C 902.24,908.241 905.906,908.574 909.5,909.5C 910.666,920.485 910.832,931.485 910,942.5C 909.5,943 909,943.5 908.5,944C 903.511,944.499 898.511,944.666 893.5,944.5C 893.5,956.833 893.5,969.167 893.5,981.5C 898.249,982.35 902.916,983.516 907.5,985C 910.796,987.801 911.129,990.801 908.5,994C 900.167,994.667 891.833,994.667 883.5,994C 881.333,993.167 879.833,991.667 879,989.5C 878.5,974.504 878.333,959.504 878.5,944.5C 872.907,944.807 867.407,944.473 862,943.5C 861.333,932.167 861.333,920.833 862,909.5C 865.459,908.867 868.959,908.2 872.5,907.5C 870.22,882.569 869.053,857.569 869,832.5C 870.102,831.051 871.269,829.718 872.5,828.5 Z"/></g>
<g><path style="opacity:1" fill="#f08e35" d="M 948.5,840.5 C 949.148,852.932 949.815,865.265 950.5,877.5C 950.666,887.506 950.5,897.506 950,907.5C 949,909.833 947.333,911.5 945,912.5C 944.167,935.507 944.334,958.507 945.5,981.5C 949.846,982.668 954.179,983.834 958.5,985C 961.29,987.21 962.123,990.044 961,993.5C 952.245,994.65 943.412,994.816 934.5,994C 933.069,993.535 931.903,992.701 931,991.5C 929.85,965.247 929.017,938.914 928.5,912.5C 926.851,911.352 925.351,910.019 924,908.5C 921.806,883.198 920.472,857.864 920,832.5C 921.497,830.323 923.497,828.99 926,828.5C 933.856,831.861 941.356,835.861 948.5,840.5 Z"/></g>
<g><path style="opacity:1" fill="#f08f36" d="M 1016.5,828.5 C 1023.27,828.77 1026.27,832.27 1025.5,839C 1024.2,859.825 1023.03,880.659 1022,901.5C 1022.33,906.512 1020.33,910.179 1016,912.5C 1015.67,938.167 1015.33,963.833 1015,989.5C 1014.05,991.57 1012.55,993.07 1010.5,994C 1001.83,994.667 993.167,994.667 984.5,994C 982.64,989.849 983.64,986.516 987.5,984C 991.816,983.004 996.149,982.17 1000.5,981.5C 1000.83,958.49 1000.5,935.49 999.5,912.5C 997.473,911.307 995.973,909.64 995,907.5C 994.667,896.167 994.333,884.833 994,873.5C 987.618,881.093 981.118,888.593 974.5,896C 965.315,897.818 962.148,894.318 965,885.5C 975,874.167 985,862.833 995,851.5C 995.175,847.789 995.675,844.122 996.5,840.5C 1003.47,836.836 1010.14,832.836 1016.5,828.5 Z"/></g>
<g><path style="opacity:1" fill="#f6be8b" d="M 948.5,840.5 C 950.48,852.455 951.146,864.788 950.5,877.5C 949.815,865.265 949.148,852.932 948.5,840.5 Z"/></g>
<g><path style="opacity:1" fill="#ef8e35" d="M 601.5,1380.5 C 600.925,1386.17 600.758,1391.83 601,1397.5C 616.224,1375.94 631.058,1354.11 645.5,1332C 663.176,1331.17 680.843,1331.33 698.5,1332.5C 680.211,1355.46 661.544,1378.12 642.5,1400.5C 663.443,1427.55 683.777,1455.05 703.5,1483C 685.833,1483.67 668.167,1483.67 650.5,1483C 634.375,1456.58 617.875,1430.41 601,1404.5C 602.343,1430.78 602.843,1457.11 602.5,1483.5C 588.5,1483.5 574.5,1483.5 560.5,1483.5C 560.5,1411.5 560.5,1339.5 560.5,1267.5C 574.167,1267.5 587.833,1267.5 601.5,1267.5C 601.5,1305.17 601.5,1342.83 601.5,1380.5 Z"/></g>
<g><path style="opacity:1" fill="#da9050" d="M 601.5,1380.5 C 601.5,1342.83 601.5,1305.17 601.5,1267.5C 587.833,1267.5 574.167,1267.5 560.5,1267.5C 560.5,1339.5 560.5,1411.5 560.5,1483.5C 559.501,1411.34 559.167,1339 559.5,1266.5C 573.833,1266.5 588.167,1266.5 602.5,1266.5C 602.832,1304.67 602.499,1342.67 601.5,1380.5 Z"/></g>
<g><path style="opacity:1" fill="#ef8d35" d="M 264.5,1281.5 C 303.833,1281.5 343.167,1281.5 382.5,1281.5C 382.5,1294.83 382.5,1308.17 382.5,1321.5C 357.833,1321.5 333.167,1321.5 308.5,1321.5C 308.5,1336.17 308.5,1350.83 308.5,1365.5C 330.833,1365.5 353.167,1365.5 375.5,1365.5C 375.5,1379.17 375.5,1392.83 375.5,1406.5C 353.167,1406.5 330.833,1406.5 308.5,1406.5C 308.5,1432.17 308.5,1457.83 308.5,1483.5C 293.833,1483.5 279.167,1483.5 264.5,1483.5C 264.5,1416.17 264.5,1348.83 264.5,1281.5 Z"/></g>
<g><path style="opacity:1" fill="#e18635" d="M 1009.5,1282.5 C 982.833,1282.5 956.167,1282.5 929.5,1282.5C 929.5,1349.5 929.5,1416.5 929.5,1483.5C 928.501,1416.34 928.168,1349 928.5,1281.5C 955.672,1281.17 982.672,1281.5 1009.5,1282.5 Z"/></g>
<g><path style="opacity:1" fill="#ef8e35" d="M 1009.5,1282.5 C 1044.57,1286.73 1060.74,1306.4 1058,1341.5C 1054.8,1358.86 1044.63,1369.53 1027.5,1373.5C 1020.99,1374.74 1020.99,1375.41 1027.5,1375.5C 1053.34,1379.81 1066.01,1395.14 1065.5,1421.5C 1065.19,1456.96 1047.52,1477.46 1012.5,1483C 984.835,1483.5 957.169,1483.67 929.5,1483.5C 929.5,1416.5 929.5,1349.5 929.5,1282.5C 956.167,1282.5 982.833,1282.5 1009.5,1282.5 Z"/></g>
<g><path style="opacity:1" fill="#ef8e36" d="M 1430.5,1331.5 C 1443.66,1332.5 1456.99,1332.83 1470.5,1332.5C 1470.5,1339.83 1470.5,1347.17 1470.5,1354.5C 1456.99,1354.17 1443.66,1354.5 1430.5,1355.5C 1430.03,1388.55 1430.53,1421.55 1432,1454.5C 1434.17,1458.68 1437.67,1460.85 1442.5,1461C 1452.49,1461.5 1462.49,1461.67 1472.5,1461.5C 1472.5,1469.17 1472.5,1476.83 1472.5,1484.5C 1458.18,1485.54 1443.85,1485.7 1429.5,1485C 1414.44,1480.94 1406.28,1471.11 1405,1455.5C 1404.33,1425.5 1404.33,1395.5 1405,1365.5C 1405.41,1361.51 1407.25,1358.34 1410.5,1356C 1401.51,1355.5 1392.51,1355.33 1383.5,1355.5C 1383.5,1347.83 1383.5,1340.17 1383.5,1332.5C 1391.02,1332.82 1398.35,1332.49 1405.5,1331.5C 1406.92,1317.12 1408.76,1302.79 1411,1288.5C 1417.41,1287.52 1423.91,1287.19 1430.5,1287.5C 1430.5,1302.17 1430.5,1316.83 1430.5,1331.5 Z"/></g>
<g><path style="opacity:1" fill="#d8975b" d="M 995.5,1306.5 C 981.833,1306.5 968.167,1306.5 954.5,1306.5C 954.5,1326.5 954.5,1346.5 954.5,1366.5C 953.503,1346.34 953.17,1326.01 953.5,1305.5C 967.677,1305.17 981.677,1305.5 995.5,1306.5 Z"/></g>
<g><path style="opacity:1" fill="#faeee5" d="M 995.5,1306.5 C 1023.9,1306.38 1035.06,1320.04 1029,1347.5C 1024.71,1358.58 1016.54,1364.75 1004.5,1366C 987.837,1366.5 971.17,1366.67 954.5,1366.5C 954.5,1346.5 954.5,1326.5 954.5,1306.5C 968.167,1306.5 981.833,1306.5 995.5,1306.5 Z"/></g>
<g><path style="opacity:1" fill="#ef8e36" d="M 483.5,1483.5 C 483.667,1472.83 483.5,1462.16 483,1451.5C 482.59,1452.9 482.09,1454.23 481.5,1455.5C 473.134,1479.7 456.134,1489.53 430.5,1485C 401.497,1478.19 389.664,1460.02 395,1430.5C 399.381,1417.12 408.214,1407.95 421.5,1403C 441.677,1396.73 462.344,1393.56 483.5,1393.5C 484.541,1365.18 471.874,1356.35 445.5,1367C 440.277,1372.79 437.944,1379.62 438.5,1387.5C 424.833,1387.5 411.167,1387.5 397.5,1387.5C 396.855,1353.99 413.188,1334.83 446.5,1330C 461.681,1328.67 476.681,1329.67 491.5,1333C 512.219,1340.07 523.719,1354.57 526,1376.5C 526.5,1412.17 526.667,1447.83 526.5,1483.5C 512.167,1483.5 497.833,1483.5 483.5,1483.5 Z"/></g>
<g><path style="opacity:1" fill="#ef8e35" d="M 847.5,1415.5 C 814.833,1415.5 782.167,1415.5 749.5,1415.5C 749.216,1417.41 749.549,1419.08 750.5,1420.5C 753.968,1448.23 768.968,1457.73 795.5,1449C 800.275,1445.44 803.275,1440.78 804.5,1435C 818.163,1434.5 831.829,1434.33 845.5,1434.5C 843.048,1458.46 830.381,1474.29 807.5,1482C 790.252,1486.24 772.919,1486.57 755.5,1483C 729.748,1474.71 714.248,1457.21 709,1430.5C 707.501,1417.2 707.168,1403.87 708,1390.5C 715.597,1350.19 739.93,1329.53 781,1328.5C 818.535,1328.38 840.535,1346.71 847,1383.5C 847.5,1394.16 847.667,1404.83 847.5,1415.5 Z"/></g>
<g><path style="opacity:1" fill="#ee8e36" d="M 1290.5,1329.5 C 1308.9,1326.81 1325.9,1330.31 1341.5,1340C 1351.83,1349.17 1357.5,1360.67 1358.5,1374.5C 1349.83,1374.5 1341.17,1374.5 1332.5,1374.5C 1329.51,1358.5 1319.84,1350.83 1303.5,1351.5C 1281.31,1351.5 1273.81,1361.83 1281,1382.5C 1285.95,1387.4 1291.79,1390.9 1298.5,1393C 1311.83,1397.33 1325.17,1401.67 1338.5,1406C 1363.78,1418.54 1370.28,1437.71 1358,1463.5C 1346.84,1478 1332.01,1485.5 1313.5,1486C 1291.62,1488.66 1272.79,1482.5 1257,1467.5C 1250.77,1459.25 1247.6,1449.92 1247.5,1439.5C 1256.17,1439.5 1264.83,1439.5 1273.5,1439.5C 1275.33,1454.16 1283.66,1462.33 1298.5,1464C 1310.09,1465.12 1321.09,1463.12 1331.5,1458C 1334.47,1455.9 1336.3,1453.07 1337,1449.5C 1339.95,1438.23 1336.11,1430.39 1325.5,1426C 1306.36,1421.51 1288.02,1414.84 1270.5,1406C 1254.64,1394.77 1248.81,1379.6 1253,1360.5C 1255.95,1351.09 1261.45,1343.59 1269.5,1338C 1276.18,1334.06 1283.18,1331.22 1290.5,1329.5 Z"/></g>
<g><path style="opacity:1" fill="#ef8e36" d="M 1621.5,1412.5 C 1586.17,1412.5 1550.83,1412.5 1515.5,1412.5C 1515.22,1414.41 1515.55,1416.08 1516.5,1417.5C 1519.82,1453.64 1539.15,1468.14 1574.5,1461C 1583.95,1457.42 1589.95,1450.75 1592.5,1441C 1600.83,1440.5 1609.16,1440.33 1617.5,1440.5C 1614.61,1463.9 1601.61,1478.4 1578.5,1484C 1549.43,1490.78 1524.93,1483.28 1505,1461.5C 1494.24,1444.46 1489.07,1425.79 1489.5,1405.5C 1489.04,1379.27 1498.71,1357.77 1518.5,1341C 1543.81,1325.26 1569.47,1324.6 1595.5,1339C 1609.8,1350 1618.3,1364.5 1621,1382.5C 1621.5,1392.49 1621.67,1402.49 1621.5,1412.5 Z"/></g>
<g><path style="opacity:1" fill="#ef8d35" d="M 1716.5,1328.5 C 1721.87,1328.39 1727.2,1328.73 1732.5,1329.5C 1732.83,1338.86 1732.5,1348.19 1731.5,1357.5C 1708.86,1352.07 1692.36,1359.74 1682,1380.5C 1681.5,1414.83 1681.33,1449.17 1681.5,1483.5C 1672.83,1483.5 1664.17,1483.5 1655.5,1483.5C 1655.5,1432.83 1655.5,1382.17 1655.5,1331.5C 1662.83,1331.5 1670.17,1331.5 1677.5,1331.5C 1678.22,1343.5 1679.06,1355.5 1680,1367.5C 1684.52,1347 1696.68,1334 1716.5,1328.5 Z"/></g>
<g><path style="opacity:1" fill="#ef8e35" d="M 1100.5,1332.5 C 1108.83,1332.5 1117.17,1332.5 1125.5,1332.5C 1125.17,1367 1125.5,1401.34 1126.5,1435.5C 1128.36,1457.95 1140.36,1466.45 1162.5,1461C 1174.81,1457.19 1183.47,1449.36 1188.5,1437.5C 1189.5,1402.67 1189.83,1367.67 1189.5,1332.5C 1197.83,1332.5 1206.17,1332.5 1214.5,1332.5C 1214.5,1382.83 1214.5,1433.17 1214.5,1483.5C 1207.17,1483.5 1199.83,1483.5 1192.5,1483.5C 1192.17,1474.17 1191.83,1464.83 1191.5,1455.5C 1191.66,1452.81 1191.5,1450.15 1191,1447.5C 1190.21,1448.74 1189.71,1450.08 1189.5,1451.5C 1179.69,1480.58 1159.69,1491.75 1129.5,1485C 1110.76,1477.22 1100.93,1463.06 1100,1442.5C 1099.17,1405.66 1099.34,1369 1100.5,1332.5 Z"/></g>
<g><path style="opacity:1" fill="#d69963" d="M 1100.5,1332.5 C 1108.98,1331.51 1117.65,1331.17 1126.5,1331.5C 1126.5,1366.17 1126.5,1400.83 1126.5,1435.5C 1125.5,1401.34 1125.17,1367 1125.5,1332.5C 1117.17,1332.5 1108.83,1332.5 1100.5,1332.5 Z"/></g>
<g><path style="opacity:1" fill="#d69964" d="M 1214.5,1332.5 C 1206.17,1332.5 1197.83,1332.5 1189.5,1332.5C 1189.83,1367.67 1189.5,1402.67 1188.5,1437.5C 1188.5,1402.17 1188.5,1366.83 1188.5,1331.5C 1197.35,1331.17 1206.02,1331.51 1214.5,1332.5 Z"/></g>
<g><path style="opacity:1" fill="#d6975b" d="M 1405.5,1331.5 C 1398.35,1332.49 1391.02,1332.82 1383.5,1332.5C 1383.5,1340.17 1383.5,1347.83 1383.5,1355.5C 1382.51,1347.68 1382.17,1339.68 1382.5,1331.5C 1390.17,1331.5 1397.83,1331.5 1405.5,1331.5 Z"/></g>
<g><path style="opacity:1" fill="#faeee4" d="M 1546.5,1352.5 C 1578.21,1348.15 1594.54,1361.82 1595.5,1393.5C 1571.5,1393.33 1547.5,1393.5 1523.5,1394C 1520.9,1394.88 1518.73,1396.38 1517,1398.5C 1516.58,1376.28 1526.42,1360.95 1546.5,1352.5 Z"/></g>
<g><path style="opacity:1" fill="#da8c44" d="M 1430.5,1331.5 C 1444.17,1331.5 1457.83,1331.5 1471.5,1331.5C 1471.5,1339.5 1471.5,1347.5 1471.5,1355.5C 1457.83,1355.5 1444.17,1355.5 1430.5,1355.5C 1443.66,1354.5 1456.99,1354.17 1470.5,1354.5C 1470.5,1347.17 1470.5,1339.83 1470.5,1332.5C 1456.99,1332.83 1443.66,1332.5 1430.5,1331.5 Z"/></g>
<g><path style="opacity:1" fill="#faeee4" d="M 805.5,1387.5 C 805.5,1388.83 805.5,1390.17 805.5,1391.5C 790.657,1391.17 775.99,1391.5 761.5,1392.5C 755.788,1393.04 751.954,1396.04 750,1401.5C 749.617,1390.02 752.784,1379.69 759.5,1370.5C 762.539,1367.31 766.206,1365.15 770.5,1364C 779.168,1362.66 787.502,1363.66 795.5,1367C 801.902,1372.3 805.235,1379.14 805.5,1387.5 Z"/></g>
<g><path style="opacity:1" fill="#d8985d" d="M 1027.5,1373.5 C 1027.5,1374.17 1027.5,1374.83 1027.5,1375.5C 1020.99,1375.41 1020.99,1374.74 1027.5,1373.5 Z"/></g>
<g><path style="opacity:1" fill="#faeee5" d="M 954.5,1389.5 C 970.17,1389.33 985.837,1389.5 1001.5,1390C 1032.78,1390.98 1044.28,1406.81 1036,1437.5C 1033.6,1446.24 1028.1,1452.07 1019.5,1455C 1012.97,1456.98 1006.3,1458.31 999.5,1459C 984.504,1459.5 969.504,1459.67 954.5,1459.5C 954.5,1436.17 954.5,1412.83 954.5,1389.5 Z"/></g>
<g><path style="opacity:1" fill="#d88e49" d="M 805.5,1387.5 C 806.451,1388.92 806.784,1390.59 806.5,1392.5C 791.5,1392.5 776.5,1392.5 761.5,1392.5C 775.99,1391.5 790.657,1391.17 805.5,1391.5C 805.5,1390.17 805.5,1388.83 805.5,1387.5 Z"/></g>
<g><path style="opacity:1" fill="#d69860" d="M 1621.5,1412.5 C 1586.67,1413.5 1551.67,1413.83 1516.5,1413.5C 1516.5,1414.83 1516.5,1416.17 1516.5,1417.5C 1515.55,1416.08 1515.22,1414.41 1515.5,1412.5C 1550.83,1412.5 1586.17,1412.5 1621.5,1412.5 Z"/></g>
<g><path style="opacity:1" fill="#faede3" d="M 478.5,1413.5 C 480.167,1413.5 481.833,1413.5 483.5,1413.5C 483.666,1421.51 483.5,1429.51 483,1437.5C 477.979,1450.02 468.645,1456.36 455,1456.5C 448.29,1456.98 443.29,1454.31 440,1448.5C 435.456,1436.5 438.623,1427.33 449.5,1421C 459.115,1417.78 468.782,1415.28 478.5,1413.5 Z"/></g>
<g><path style="opacity:1" fill="#d88b44" d="M 847.5,1415.5 C 815.338,1416.5 783.004,1416.83 750.5,1416.5C 750.5,1417.83 750.5,1419.17 750.5,1420.5C 749.549,1419.08 749.216,1417.41 749.5,1415.5C 782.167,1415.5 814.833,1415.5 847.5,1415.5 Z"/></g>
<g><path style="opacity:1" fill="#d89c64" d="M 1191.5,1455.5 C 1190.83,1454.17 1190.17,1452.83 1189.5,1451.5C 1189.71,1450.08 1190.21,1448.74 1191,1447.5C 1191.5,1450.15 1191.66,1452.81 1191.5,1455.5 Z"/></g>
<g><path style="opacity:1" fill="#dcae85" d="M 483.5,1483.5 C 482.833,1474.17 482.167,1464.83 481.5,1455.5C 482.09,1454.23 482.59,1452.9 483,1451.5C 483.5,1462.16 483.667,1472.83 483.5,1483.5 Z"/></g>
</svg>
